<svg xmlns="http://www.w3.org/2000/svg" width="16" height="16" viewBox="0 0 16 16" fill="none">
  <path d="M11.3333 4.66634H4.66658C4.48977 4.66634 4.3202 4.73658 4.19518 4.8616C4.07016 4.98663 3.99992 5.1562 3.99992 5.33301C3.99992 5.50982 4.07016 5.67939 4.19518 5.80441C4.3202 5.92944 4.48977 5.99967 4.66658 5.99967H11.3333C11.5101 5.99967 11.6796 5.92944 11.8047 5.80441C11.9297 5.67939 11.9999 5.50982 11.9999 5.33301C11.9999 5.1562 11.9297 4.98663 11.8047 4.8616C11.6796 4.73658 11.5101 4.66634 11.3333 4.66634ZM11.3333 7.33301H4.66658C4.48977 7.33301 4.3202 7.40325 4.19518 7.52827C4.07016 7.65329 3.99992 7.82286 3.99992 7.99967C3.99992 8.17649 4.07016 8.34606 4.19518 8.47108C4.3202 8.5961 4.48977 8.66634 4.66658 8.66634H11.3333C11.5101 8.66634 11.6796 8.5961 11.8047 8.47108C11.9297 8.34606 11.9999 8.17649 11.9999 7.99967C11.9999 7.82286 11.9297 7.65329 11.8047 7.52827C11.6796 7.40325 11.5101 7.33301 11.3333 7.33301ZM12.6666 1.33301H3.33325C2.80282 1.33301 2.29411 1.54372 1.91904 1.91879C1.54397 2.29387 1.33325 2.80257 1.33325 3.33301V9.99967C1.33325 10.5301 1.54397 11.0388 1.91904 11.4139C2.29411 11.789 2.80282 11.9997 3.33325 11.9997H11.0599L13.5266 14.473C13.5889 14.5348 13.6628 14.5837 13.744 14.6169C13.8252 14.65 13.9122 14.6668 13.9999 14.6663C14.0874 14.6686 14.1741 14.6503 14.2533 14.613C14.375 14.563 14.4792 14.4781 14.5528 14.3689C14.6263 14.2598 14.6659 14.1313 14.6666 13.9997V3.33301C14.6666 2.80257 14.4559 2.29387 14.0808 1.91879C13.7057 1.54372 13.197 1.33301 12.6666 1.33301ZM13.3333 12.393L11.8066 10.8597C11.7443 10.7979 11.6704 10.749 11.5892 10.7158C11.508 10.6827 11.421 10.6658 11.3333 10.6663H3.33325C3.15644 10.6663 2.98687 10.5961 2.86185 10.4711C2.73682 10.3461 2.66659 10.1765 2.66659 9.99967V3.33301C2.66659 3.1562 2.73682 2.98663 2.86185 2.8616C2.98687 2.73658 3.15644 2.66634 3.33325 2.66634H12.6666C12.8434 2.66634 13.013 2.73658 13.138 2.8616C13.263 2.98663 13.3333 3.1562 13.3333 3.33301V12.393Z" fill="#C0C0C0"/>
</svg>